<svg width="27" height="27" viewBox="0 0 27 27" fill="none" xmlns="http://www.w3.org/2000/svg">
<path fill-rule="evenodd" clip-rule="evenodd" d="M8.33366 2.66663C6.83077 2.66663 5.38943 3.26365 4.32672 4.32635C3.26401 5.38906 2.66699 6.8304 2.66699 8.33329V19C2.66699 20.5029 3.26401 21.9442 4.32672 23.0069C5.38943 24.0696 6.83077 24.6666 8.33366 24.6666H11.3337V16H9.66699C9.11471 16 8.66699 15.5522 8.66699 15C8.66699 14.4477 9.11471 14 9.66699 14H11.3337V13.6666C11.3337 12.1844 11.4889 10.5475 12.4596 9.29375C13.4762 7.98074 15.1772 7.33329 17.667 7.33329C18.2193 7.33329 18.667 7.78101 18.667 8.33329C18.667 8.88558 18.2193 9.33329 17.667 9.33329C15.4901 9.33329 14.5244 9.89385 14.041 10.5182C13.5118 11.2017 13.3337 12.2315 13.3337 13.6666V14H17.667C18.2193 14 18.667 14.4477 18.667 15C18.667 15.5522 18.2193 16 17.667 16H13.3337V24.6666H19.0003C20.5032 24.6666 21.9446 24.0696 23.0073 23.0069C24.07 21.9442 24.667 20.5029 24.667 19V8.33329C24.667 6.8304 24.07 5.38906 23.0073 4.32635C21.9446 3.26365 20.5032 2.66663 19.0003 2.66663H8.33366ZM19.0003 26.6666C21.0337 26.6666 22.9837 25.8589 24.4215 24.4211C25.8593 22.9833 26.667 21.0333 26.667 19V8.33329C26.667 6.29997 25.8593 4.34992 24.4215 2.91214C22.9837 1.47436 21.0337 0.666626 19.0003 0.666626H8.33366C6.30033 0.666626 4.35029 1.47436 2.91251 2.91214C1.47473 4.34992 0.666992 6.29997 0.666992 8.33329V19C0.666992 21.0333 1.47473 22.9833 2.91251 24.4211C4.35029 25.8589 6.30033 26.6666 8.33366 26.6666H19.0003Z" fill="white"/>
</svg>
