<svg width="27" height="27" viewBox="0 0 27 27" fill="none" xmlns="http://www.w3.org/2000/svg">
<path fill-rule="evenodd" clip-rule="evenodd" d="M8.33366 2.66663C6.83077 2.66663 5.38943 3.26365 4.32672 4.32635C3.26401 5.38906 2.66699 6.8304 2.66699 8.33329V19C2.66699 20.5029 3.26401 21.9442 4.32672 23.0069C5.38943 24.0696 6.83077 24.6666 8.33366 24.6666H19.0003C20.5032 24.6666 21.9446 24.0696 23.0073 23.0069C24.07 21.9442 24.667 20.5029 24.667 19V8.33329C24.667 6.8304 24.07 5.38906 23.0073 4.32635C21.9446 3.26365 20.5032 2.66663 19.0003 2.66663H8.33366ZM2.91251 2.91214C4.35029 1.47436 6.30033 0.666626 8.33366 0.666626H19.0003C21.0337 0.666626 22.9837 1.47436 24.4215 2.91214C25.8593 4.34992 26.667 6.29997 26.667 8.33329V19C26.667 21.0333 25.8593 22.9833 24.4215 24.4211C22.9837 25.8589 21.0337 26.6666 19.0003 26.6666H8.33366C6.30033 26.6666 4.35029 25.8589 2.91251 24.4211C1.47473 22.9833 0.666992 21.0333 0.666992 19V8.33329C0.666992 6.29997 1.47473 4.34992 2.91251 2.91214ZM21.6863 5.59202C22.095 5.96353 22.1251 6.59598 21.7536 7.00464L21.7403 7.0193C21.3688 7.42796 20.7363 7.45807 20.3277 7.08656C19.919 6.71506 19.8889 6.08261 20.2604 5.67395L20.2737 5.65928C20.6452 5.25063 21.2777 5.22051 21.6863 5.59202ZM9.18865 9.18828C10.3764 8.00055 11.9873 7.33329 13.667 7.33329C15.3467 7.33329 16.9576 8.00055 18.1453 9.18828C19.3331 10.376 20.0003 11.9869 20.0003 13.6666C20.0003 15.3463 19.3331 16.9572 18.1453 18.145C16.9576 19.3327 15.3467 20 13.667 20C11.9873 20 10.3764 19.3327 9.18865 18.145C8.00092 16.9572 7.33366 15.3463 7.33366 13.6666C7.33366 11.9869 8.00092 10.376 9.18865 9.18828ZM13.667 9.33329C12.5177 9.33329 11.4155 9.78984 10.6029 10.6025C9.79021 11.4152 9.33366 12.5174 9.33366 13.6666C9.33366 14.8159 9.79021 15.9181 10.6029 16.7308C11.4155 17.5434 12.5177 18 13.667 18C14.8163 18 15.9185 17.5434 16.7311 16.7308C17.5438 15.9181 18.0003 14.8159 18.0003 13.6666C18.0003 12.5174 17.5438 11.4152 16.7311 10.6025C15.9185 9.78984 14.8163 9.33329 13.667 9.33329Z" fill="white"/>
</svg>
