<svg width="27" height="27" viewBox="0 0 27 27" fill="none" xmlns="http://www.w3.org/2000/svg">
<path fill-rule="evenodd" clip-rule="evenodd" d="M8.33366 2.66663C6.83077 2.66663 5.38943 3.26365 4.32672 4.32635C3.26401 5.38906 2.66699 6.8304 2.66699 8.33329V19C2.66699 20.5029 3.26401 21.9442 4.32672 23.0069C5.38943 24.0696 6.83077 24.6666 8.33366 24.6666H19.0003C20.5032 24.6666 21.9446 24.0696 23.0073 23.0069C24.07 21.9442 24.667 20.5029 24.667 19V8.33329C24.667 6.8304 24.07 5.38906 23.0073 4.32635C21.9446 3.26365 20.5032 2.66663 19.0003 2.66663H8.33366ZM2.91251 2.91214C4.35029 1.47436 6.30033 0.666626 8.33366 0.666626H19.0003C21.0337 0.666626 22.9837 1.47436 24.4215 2.91214C25.8593 4.34992 26.667 6.29997 26.667 8.33329V19C26.667 21.0333 25.8593 22.9833 24.4215 24.4211C22.9837 25.8589 21.0337 26.6666 19.0003 26.6666H8.33366C6.30033 26.6666 4.35029 25.8589 2.91251 24.4211C1.47473 22.9833 0.666992 21.0333 0.666992 19V8.33329C0.666992 6.29997 1.47473 4.34992 2.91251 2.91214ZM7.68634 6.25869C8.09499 6.6302 8.12511 7.26265 7.7536 7.6713L7.74026 7.68597C7.36875 8.09463 6.73631 8.12474 6.32765 7.75323C5.91899 7.38172 5.88888 6.74927 6.26039 6.34062L6.27372 6.32595C6.64523 5.91729 7.27768 5.88718 7.68634 6.25869ZM7.00033 9.99996C7.55261 9.99996 8.00033 10.4477 8.00033 11V20.3333C8.00033 20.8856 7.55261 21.3333 7.00033 21.3333C6.44804 21.3333 6.00033 20.8856 6.00033 20.3333V11C6.00033 10.4477 6.44804 9.99996 7.00033 9.99996ZM12.3337 9.99996C12.8859 9.99996 13.3337 10.4477 13.3337 11V12.1274C14.224 11.5308 15.2942 11.25 16.3337 11.25C17.53 11.25 18.7672 11.622 19.7238 12.4192C20.7034 13.2356 21.3337 14.4552 21.3337 16V20.3333C21.3337 20.8856 20.8859 21.3333 20.3337 21.3333C19.7814 21.3333 19.3337 20.8856 19.3337 20.3333V16C19.3337 15.0447 18.9639 14.3894 18.4435 13.9557C17.9001 13.5029 17.1373 13.25 16.3337 13.25C15.53 13.25 14.7672 13.5029 14.2238 13.9557C13.7034 14.3894 13.3337 15.0447 13.3337 16V20.3333C13.3337 20.8856 12.8859 21.3333 12.3337 21.3333C11.7814 21.3333 11.3337 20.8856 11.3337 20.3333V11C11.3337 10.4477 11.7814 9.99996 12.3337 9.99996Z" fill="white"/>
</svg>
