<svg width="27" height="27" viewBox="0 0 27 27" fill="none" xmlns="http://www.w3.org/2000/svg">
<path fill-rule="evenodd" clip-rule="evenodd" d="M22.0407 6.81152C22.082 6.56375 21.9868 6.31293 21.7915 6.15499C21.5962 5.99705 21.331 5.95642 21.0973 6.04865L3.44077 13.0183C3.14666 13.1344 2.96755 13.434 3.00447 13.748C3.04139 14.062 3.28509 14.3119 3.59811 14.3566L9.50475 15.2004V19.707C9.50475 19.9895 9.67521 20.244 9.93638 20.3515C10.1976 20.459 10.4978 20.3983 10.6967 20.1977L13.3069 17.565L18.6364 21.2115C18.8328 21.3459 19.0843 21.3708 19.3032 21.2775C19.5221 21.1842 19.6784 20.9857 19.7175 20.7509L22.0407 6.81152ZM12.1373 16.7648L10.8987 15.9173V18.0141L12.1373 16.7648ZM13.6156 16.0871C13.6186 16.0892 13.6216 16.0913 13.6246 16.0934L18.5221 19.4443L20.3907 8.23286L11.4215 14.586L13.6032 16.0787C13.6073 16.0815 13.6115 16.0843 13.6156 16.0871ZM6.40011 13.3488L16.2403 9.46452L10.0254 13.8667L6.40011 13.3488Z" fill="white"/>
<path fill-rule="evenodd" clip-rule="evenodd" d="M0.333008 8.66663C0.333008 4.24835 3.91473 0.666626 8.33301 0.666626H18.333C22.7513 0.666626 26.333 4.24835 26.333 8.66663V18.6666C26.333 23.0849 22.7513 26.6666 18.333 26.6666H8.33301C3.91473 26.6666 0.333008 23.0849 0.333008 18.6666V8.66663ZM8.33301 2.66663H18.333C21.6467 2.66663 24.333 5.35292 24.333 8.66663V18.6666C24.333 21.9803 21.6467 24.6666 18.333 24.6666H8.33301C5.0193 24.6666 2.33301 21.9803 2.33301 18.6666V8.66663C2.33301 5.35292 5.0193 2.66663 8.33301 2.66663Z" fill="white"/>
</svg>
