<svg width="157" height="140" viewBox="0 0 157 140" fill="none" xmlns="http://www.w3.org/2000/svg">
<path d="M67.499 140C96.494 140 119.999 138.433 119.999 136.5C119.999 134.567 96.494 133 67.499 133C38.5041 133 14.999 134.567 14.999 136.5C14.999 138.433 38.5041 140 67.499 140Z" fill="#7C8698"/>
<g opacity="0.6">
<path d="M116.231 117.561L118.547 129.732L119.495 134.708L115.429 131.787L105.329 124.507L116.231 117.561Z" fill="#7C8698"/>
</g>
<path d="M118.548 129.733L119.495 134.708L115.414 131.78C116.406 131.02 117.453 130.336 118.548 129.733Z" fill="#364152"/>
<path d="M47.1108 9.10412L116.233 117.561L117.105 122.155L112.597 119.876L113.059 124.786L108.966 122.192L108.878 127.061L105.33 124.507L36.2159 16.0471L47.1108 9.10412Z" fill="#5073EE"/>
<path d="M47.1159 9.0943L36.2148 16.0425L39.599 21.3519L50.5001 14.4037L47.1159 9.0943Z" fill="#364152"/>
<g opacity="0.6">
<path d="M36.6071 7.14041L38.8799 5.69175C40.0241 4.96246 41.4111 4.71757 42.7359 5.01094C44.0606 5.30431 45.2146 6.11192 45.9438 7.25611L47.124 9.10767L36.2229 16.0559L35.0428 14.2043C34.3135 13.0602 34.0686 11.6731 34.3619 10.3484C34.6553 9.02364 35.4629 7.8697 36.6071 7.14041Z" fill="#7C8698"/>
</g>
<path d="M108.923 122.117C108.886 122.14 108.842 122.147 108.8 122.139C108.758 122.13 108.721 122.106 108.696 122.071L43.0727 19.1258C43.0494 19.0883 43.042 19.043 43.052 18.9999C43.0621 18.9569 43.0889 18.9196 43.1265 18.8963C43.164 18.8729 43.2093 18.8655 43.2524 18.8756C43.2954 18.8857 43.3327 18.9124 43.356 18.95L108.972 121.898C108.994 121.933 109.002 121.977 108.993 122.018C108.984 122.059 108.958 122.095 108.923 122.117Z" fill="#364152"/>
<path d="M112.555 119.809C112.517 119.831 112.472 119.838 112.429 119.829C112.386 119.82 112.348 119.795 112.323 119.76L46.7218 16.8191C46.6993 16.7813 46.6924 16.7362 46.7024 16.6935C46.7124 16.6507 46.7386 16.6134 46.7755 16.5895C46.7935 16.5776 46.8137 16.5695 46.8349 16.5656C46.8561 16.5618 46.8778 16.5623 46.8988 16.5671C46.9198 16.5719 46.9396 16.5809 46.957 16.5936C46.9744 16.6063 46.9891 16.6224 47.0001 16.6409L112.592 119.602C112.612 119.635 112.619 119.674 112.612 119.712C112.605 119.75 112.585 119.785 112.555 119.809Z" fill="#364152"/>
</svg>
