<svg width="159" height="48" viewBox="0 0 159 48" fill="none" xmlns="http://www.w3.org/2000/svg">
<path fill-rule="evenodd" clip-rule="evenodd" d="M105.759 32.5143L95.6506 42.5591C88.2583 49.9048 76.2625 49.7992 68.8573 42.323C61.4522 34.8469 61.4419 22.8314 68.8342 15.4857L78.9428 5.4409C86.3352 -1.90484 98.3309 -1.79915 105.736 5.67698C113.141 13.1531 113.152 25.1686 105.759 32.5143Z" fill="white"/>
<path fill-rule="evenodd" clip-rule="evenodd" d="M73.6846 10.3879C73.9945 10.0781 74.444 9.95321 74.8693 10.0589L95.5569 15.1987C96.0231 15.3145 96.3816 15.6873 96.479 16.1576L98.2343 24.6288C98.4288 24.5099 98.6539 24.4455 98.8857 24.4455C99.217 24.4455 99.5348 24.5772 99.7691 24.8115L104.074 29.116C104.562 29.6039 104.562 30.395 104.074 30.8828L94.1796 40.7769C93.9453 41.0112 93.6275 41.1429 93.2961 41.1429C92.9648 41.1429 92.647 41.0112 92.4128 40.7769L88.1082 36.4724C87.6917 36.0559 87.6307 35.4187 87.9252 34.9375L79.4543 33.1823C78.984 33.0849 78.6112 32.7264 78.4954 32.2602L73.3556 11.5726C73.2499 11.1473 73.3748 10.6978 73.6846 10.3879ZM89.9983 32.8154L96.1121 26.7016L94.1918 17.4341L78.6318 13.5682L85.5921 20.5286C86.154 20.2419 86.7924 20.0824 87.4697 20.0875C89.7254 20.1044 91.5624 21.9414 91.5793 24.1971C91.5964 26.4675 89.7642 28.2997 87.4938 28.2826C85.2381 28.2657 83.4011 26.4287 83.3842 24.173C83.3791 23.4956 83.5386 22.8573 83.8253 22.2954L76.865 15.335L80.7308 30.8951L89.9983 32.8154ZM86.3187 23.0568C86.0455 23.3388 85.8795 23.7253 85.8827 24.1542C85.8894 25.0447 86.6221 25.7774 87.5126 25.7841C88.3883 25.7907 89.0874 25.0916 89.0808 24.2159C89.0741 23.3254 88.3414 22.5927 87.451 22.586C87.022 22.5828 86.6355 22.7488 86.3535 23.022C86.3478 23.0279 86.3421 23.0337 86.3363 23.0396C86.3305 23.0454 86.3246 23.0511 86.3187 23.0568ZM90.7584 35.589L93.2961 38.1267L101.423 29.9994L98.8857 27.4617L90.7584 35.589Z" fill="#07063D"/>
<path d="M14.7186 10.4186H17.9931V33.8131H14.7186V23.0105H3.27455V33.8131H0V10.4186H3.27455V20.1748H14.7186V10.4186ZM26.7392 33.8131H23.5996V16.2588H26.7392V33.8131ZM25.1525 13.0855C24.5899 13.0855 24.106 12.9055 23.7009 12.5454C23.3183 12.1628 23.127 11.6564 23.127 11.0263C23.127 10.3961 23.3183 9.90102 23.7009 9.54093C24.106 9.15833 24.5899 8.96703 25.1525 8.96703C25.7152 8.96703 26.1878 9.15833 26.5704 9.54093C26.9755 9.90102 27.178 10.3961 27.178 11.0263C27.178 11.6564 26.9755 12.1628 26.5704 12.5454C26.1878 12.9055 25.7152 13.0855 25.1525 13.0855ZM38.6197 15.8875C38.8898 15.8875 39.1936 15.91 39.5312 15.955C39.8913 15.9775 40.2401 16.0225 40.5777 16.09C40.9153 16.135 41.2191 16.1913 41.4891 16.2588C41.7817 16.3038 41.9955 16.3489 42.1306 16.3938L41.5904 19.1283C41.3429 19.0382 40.9265 18.937 40.3414 18.8244C39.7787 18.6894 39.0473 18.6219 38.1471 18.6219C37.562 18.6219 36.9768 18.6894 36.3917 18.8244C35.829 18.937 35.4577 19.0158 35.2776 19.0608V33.8131H32.1381V17.0015C32.8808 16.7314 33.8035 16.4839 34.9063 16.2588C36.0091 16.0113 37.2468 15.8875 38.6197 15.8875ZM44.1811 25.0697C44.1811 23.5168 44.4062 22.1665 44.8563 21.0187C45.3064 19.8484 45.9028 18.8807 46.6455 18.1155C47.3881 17.3503 48.2433 16.7764 49.2111 16.3938C50.1788 16.0113 51.1691 15.82 52.1818 15.82C54.5449 15.82 56.3568 16.5626 57.6169 18.048C58.877 19.5108 59.5073 21.7502 59.5073 24.7659C59.5073 24.9009 59.5073 25.081 59.5073 25.306C59.5073 25.5086 59.4963 25.6999 59.4736 25.8799H47.4557C47.5907 27.7029 48.1196 29.0869 49.0423 30.0322C49.965 30.9774 51.4054 31.45 53.3633 31.45C54.4663 31.45 55.3888 31.36 56.1315 31.18C56.8969 30.9774 57.4708 30.7861 57.8532 30.6061L58.292 33.2392C57.9096 33.4418 57.2345 33.6555 56.2666 33.8806C55.3213 34.1057 54.2411 34.2182 53.0258 34.2182C51.4954 34.2182 50.1675 33.9931 49.0423 33.543C47.9395 33.0704 47.028 32.429 46.3079 31.6188C45.5877 30.8086 45.0476 29.8522 44.6875 28.7494C44.3499 27.6241 44.1811 26.3975 44.1811 25.0697ZM56.2328 23.348C56.2555 21.9302 55.8952 20.7712 55.1525 19.8709C54.4325 18.9482 53.4309 18.4869 52.148 18.4869C51.4279 18.4869 50.7865 18.6331 50.2238 18.9257C49.6837 19.1958 49.2223 19.5559 48.8397 20.006C48.4572 20.4561 48.1533 20.9737 47.9283 21.5589C47.7257 22.144 47.5907 22.7404 47.5232 23.348H56.2328Z" fill="white"/>
<path d="M123.234 31.8045C123.977 31.8045 124.63 31.7933 125.192 31.7707C125.777 31.7257 126.262 31.6582 126.644 31.5682V26.3357C126.419 26.2231 126.047 26.1331 125.53 26.0656C125.035 25.9755 124.427 25.9306 123.707 25.9306C123.234 25.9306 122.728 25.9643 122.188 26.0318C121.671 26.0993 121.186 26.2456 120.736 26.4707C120.309 26.6732 119.949 26.9658 119.656 27.3484C119.363 27.7085 119.217 28.1924 119.217 28.8C119.217 29.9253 119.577 30.713 120.298 31.1631C121.018 31.5907 121.996 31.8045 123.234 31.8045ZM122.964 16.0731C124.225 16.0731 125.283 16.2419 126.138 16.5795C127.015 16.8946 127.713 17.356 128.231 17.9636C128.771 18.5487 129.153 19.2577 129.378 20.0904C129.604 20.9006 129.716 21.8008 129.716 22.791V33.7625C129.446 33.8075 129.064 33.875 128.568 33.965C128.096 34.0325 127.556 34.1 126.948 34.1676C126.34 34.2351 125.676 34.2914 124.956 34.3364C124.258 34.4039 123.561 34.4376 122.863 34.4376C121.873 34.4376 120.962 34.3364 120.129 34.1338C119.296 33.9313 118.576 33.6162 117.968 33.1886C117.361 32.7385 116.888 32.1533 116.55 31.4331C116.213 30.713 116.044 29.8465 116.044 28.8338C116.044 27.866 116.235 27.0333 116.618 26.3357C117.023 25.638 117.563 25.0754 118.238 24.6477C118.913 24.2201 119.701 23.9051 120.601 23.7025C121.502 23.5 122.447 23.3987 123.437 23.3987C123.752 23.3987 124.078 23.4212 124.416 23.4662C124.754 23.4887 125.068 23.5337 125.361 23.6012C125.676 23.6462 125.946 23.6913 126.171 23.7363C126.397 23.7813 126.554 23.815 126.644 23.8375V22.9598C126.644 22.4422 126.588 21.9358 126.475 21.4407C126.363 20.9231 126.16 20.473 125.868 20.0904C125.575 19.6853 125.17 19.3702 124.652 19.1451C124.157 18.8976 123.505 18.7738 122.694 18.7738C121.659 18.7738 120.747 18.8526 119.96 19.0101C119.195 19.1451 118.621 19.2914 118.238 19.449L117.867 16.8496C118.272 16.6696 118.947 16.5008 119.892 16.3432C120.838 16.1632 121.861 16.0731 122.964 16.0731ZM141.412 16.1407C141.682 16.1407 141.986 16.1632 142.324 16.2082C142.683 16.2307 143.033 16.2757 143.37 16.3432C143.708 16.3882 144.012 16.4445 144.282 16.512C144.574 16.557 144.788 16.602 144.923 16.647L144.383 19.3815C144.135 19.2914 143.719 19.1901 143.134 19.0776C142.571 18.9426 141.839 18.8751 140.94 18.8751C140.354 18.8751 139.769 18.9426 139.184 19.0776C138.621 19.1901 138.25 19.2689 138.07 19.3139V34.0663H134.931V17.2547C135.673 16.9846 136.596 16.7371 137.699 16.512C138.801 16.2645 140.039 16.1407 141.412 16.1407ZM150.889 16.512H157.54V19.1451H150.889V27.2471C150.889 28.1248 150.957 28.8563 151.092 29.4414C151.227 30.0041 151.429 30.4542 151.7 30.7917C151.97 31.1068 152.307 31.3319 152.712 31.4669C153.117 31.6019 153.59 31.6695 154.13 31.6695C155.075 31.6695 155.829 31.5682 156.392 31.3656C156.977 31.1406 157.382 30.9831 157.607 30.893L158.215 33.4924C157.9 33.65 157.348 33.8412 156.561 34.0663C155.773 34.3138 154.873 34.4376 153.86 34.4376C152.667 34.4376 151.677 34.2914 150.889 33.9988C150.124 33.6837 149.505 33.2223 149.033 32.6147C148.56 32.007 148.222 31.2644 148.02 30.3866C147.84 29.4864 147.75 28.4512 147.75 27.2809V11.6171L150.889 11.0769V16.512Z" fill="white"/>
</svg>
