<svg width="105" height="32" viewBox="0 0 105 32" fill="none" xmlns="http://www.w3.org/2000/svg">
<path fill-rule="evenodd" clip-rule="evenodd" d="M70.1876 21.6762L63.479 28.3727C58.573 33.2699 50.6119 33.1994 45.6975 28.2154C40.783 23.2313 40.7762 15.2209 45.6822 10.3238L52.3907 3.62727C57.2967 -1.26989 65.2578 -1.19944 70.1722 3.78465C75.0867 8.76874 75.0935 16.7791 70.1876 21.6762Z" fill="#07063D"/>
<path fill-rule="evenodd" clip-rule="evenodd" d="M48.9011 6.92528C49.1068 6.71872 49.4051 6.63547 49.6873 6.70591L63.4168 10.1324C63.7262 10.2096 63.9641 10.4582 64.0287 10.7718L65.1936 16.4192C65.3228 16.34 65.4721 16.297 65.6259 16.297C65.8458 16.297 66.0567 16.3848 66.2122 16.541L69.0689 19.4107C69.3927 19.736 69.3927 20.2633 69.0689 20.5886L62.5027 27.1846C62.3472 27.3408 62.1363 27.4286 61.9164 27.4286C61.6965 27.4286 61.4856 27.3408 61.3301 27.1846L58.4734 24.3149C58.197 24.0373 58.1565 23.6124 58.3519 23.2917L52.7302 22.1215C52.4181 22.0566 52.1707 21.8176 52.0938 21.5068L48.6828 7.71504C48.6126 7.43153 48.6955 7.13184 48.9011 6.92528ZM59.7278 21.8769L63.7852 17.8011L62.5108 11.6227L52.1843 9.0455L56.8036 13.6857C57.1765 13.4946 57.6001 13.3882 58.0497 13.3916C59.5467 13.403 60.7658 14.6276 60.777 16.1314C60.7884 17.645 59.5724 18.8665 58.0656 18.8551C56.5686 18.8438 55.3495 17.6192 55.3383 16.1154C55.3349 15.6638 55.4408 15.2382 55.631 14.8636L51.0118 10.2234L53.5774 20.5967L59.7278 21.8769ZM57.2858 15.3712C57.1045 15.5592 56.9943 15.8169 56.9965 16.1028C57.0009 16.6965 57.4872 17.1849 58.0781 17.1894C58.6593 17.1938 59.1232 16.7277 59.1189 16.1439C59.1144 15.5503 58.6282 15.0618 58.0372 15.0574C57.7526 15.0552 57.4961 15.1659 57.3089 15.348C57.3051 15.3519 57.3013 15.3558 57.2975 15.3597C57.2936 15.3636 57.2897 15.3674 57.2858 15.3712ZM60.2322 23.726L61.9164 25.4178L67.3101 19.9996L65.6259 18.3078L60.2322 23.726Z" fill="white"/>
<path d="M9.76806 6.94576H11.9412V22.5421H9.76806V15.3403H2.17317V22.5421H0V6.94576H2.17317V13.4498H9.76806V6.94576ZM17.7456 22.5421H15.662V10.8392H17.7456V22.5421ZM16.6926 8.72369C16.3192 8.72369 15.9981 8.60366 15.7292 8.36361C15.4753 8.10854 15.3484 7.77096 15.3484 7.35086C15.3484 6.93076 15.4753 6.60068 15.7292 6.36062C15.9981 6.10555 16.3192 5.97802 16.6926 5.97802C17.066 5.97802 17.3797 6.10555 17.6335 6.36062C17.9024 6.60068 18.0368 6.93076 18.0368 7.35086C18.0368 7.77096 17.9024 8.10854 17.6335 8.36361C17.3797 8.60366 17.066 8.72369 16.6926 8.72369ZM25.6301 10.5917C25.8094 10.5917 26.011 10.6067 26.235 10.6367C26.474 10.6517 26.7055 10.6817 26.9296 10.7267C27.1536 10.7567 27.3552 10.7942 27.5345 10.8392C27.7286 10.8692 27.8705 10.8992 27.9601 10.9292L27.6017 12.7522C27.4374 12.6922 27.161 12.6246 26.7727 12.5496C26.3993 12.4596 25.9139 12.4146 25.3165 12.4146C24.9282 12.4146 24.5398 12.4596 24.1515 12.5496C23.7781 12.6246 23.5316 12.6772 23.4122 12.7072V22.5421H21.3286V11.3343C21.8215 11.1543 22.4338 10.9893 23.1657 10.8392C23.8976 10.6742 24.719 10.5917 25.6301 10.5917ZM29.321 16.7131C29.321 15.6779 29.4704 14.7777 29.7691 14.0125C30.0678 13.2323 30.4636 12.5871 30.9565 12.077C31.4493 11.5669 32.0169 11.1843 32.6592 10.9292C33.3014 10.6742 33.9586 10.5466 34.6307 10.5466C36.199 10.5466 37.4014 11.0418 38.2377 12.032C39.074 13.0072 39.4923 14.5001 39.4923 16.5106C39.4923 16.6006 39.4923 16.7206 39.4923 16.8707C39.4923 17.0057 39.485 17.1333 39.4699 17.2533H31.4942C31.5838 18.4686 31.9348 19.3913 32.5471 20.0215C33.1595 20.6516 34.1154 20.9667 35.4148 20.9667C36.1468 20.9667 36.7591 20.9067 37.2519 20.7866C37.7599 20.6516 38.1407 20.5241 38.3945 20.404L38.6858 22.1595C38.432 22.2945 37.9839 22.437 37.3416 22.5871C36.7142 22.7371 35.9973 22.8121 35.1908 22.8121C34.1752 22.8121 33.2939 22.6621 32.5471 22.362C31.8153 22.0469 31.2104 21.6193 30.7324 21.0792C30.2545 20.5391 29.896 19.9014 29.657 19.1662C29.433 18.4161 29.321 17.5983 29.321 16.7131ZM37.3191 15.5654C37.3342 14.6201 37.0951 13.8475 36.6022 13.2473C36.1244 12.6322 35.4596 12.3246 34.6083 12.3246C34.1303 12.3246 33.7047 12.4221 33.3313 12.6171C32.9728 12.7972 32.6666 13.0373 32.4127 13.3373C32.1588 13.6374 31.9572 13.9825 31.8078 14.3726C31.6734 14.7627 31.5838 15.1603 31.539 15.5654H37.3191Z" fill="#07063D"/>
<path d="M81.7851 21.203C82.278 21.203 82.711 21.1955 83.0845 21.1805C83.4727 21.1505 83.7941 21.1055 84.0479 21.0455V17.5571C83.8984 17.4821 83.652 17.4221 83.3086 17.3771C82.9799 17.317 82.5766 17.287 82.0988 17.287C81.7851 17.287 81.4491 17.3095 81.0906 17.3546C80.7472 17.3996 80.4258 17.4971 80.1272 17.6471C79.8433 17.7822 79.6046 17.9772 79.4103 18.2323C79.216 18.4723 79.1191 18.7949 79.1191 19.2C79.1191 19.9502 79.3581 20.4753 79.836 20.7754C80.3138 21.0605 80.9635 21.203 81.7851 21.203ZM81.6059 10.7154C82.4422 10.7154 83.1444 10.828 83.7118 11.053C84.2943 11.2631 84.7575 11.5706 85.1009 11.9757C85.4593 12.3658 85.7131 12.8384 85.8626 13.3936C86.0121 13.9337 86.0866 14.5339 86.0866 15.194V22.5083C85.9074 22.5383 85.6536 22.5833 85.3249 22.6433C85.0113 22.6884 84.6528 22.7334 84.2495 22.7784C83.8463 22.8234 83.4055 22.8609 82.9277 22.8909C82.4646 22.9359 82.0018 22.9584 81.5387 22.9584C80.8816 22.9584 80.2767 22.8909 79.724 22.7559C79.1712 22.6208 78.6934 22.4108 78.2901 22.1257C77.8868 21.8257 77.5732 21.4355 77.3492 20.9554C77.1251 20.4753 77.0131 19.8977 77.0131 19.2225C77.0131 18.5773 77.1402 18.0222 77.394 17.5571C77.6628 17.092 78.0213 16.7169 78.4693 16.4318C78.9174 16.1467 79.4401 15.9367 80.0376 15.8017C80.6352 15.6666 81.2625 15.5991 81.9195 15.5991C82.1285 15.5991 82.3452 15.6141 82.5692 15.6441C82.7933 15.6591 83.0023 15.6891 83.1966 15.7342C83.4055 15.7641 83.5848 15.7942 83.7342 15.8242C83.8837 15.8542 83.988 15.8767 84.0479 15.8917V15.3065C84.0479 14.9615 84.0104 14.6239 83.9359 14.2938C83.8613 13.9487 83.7269 13.6486 83.5326 13.3936C83.3383 13.1235 83.0695 12.9135 82.7261 12.7634C82.3974 12.5984 81.9643 12.5159 81.4266 12.5159C80.7395 12.5159 80.1346 12.5684 79.6119 12.6734C79.104 12.7634 78.7231 12.8609 78.4693 12.966L78.2229 11.2331C78.4917 11.113 78.9398 11.0005 79.5671 10.8955C80.1944 10.7755 80.8739 10.7154 81.6059 10.7154ZM93.8489 10.7604C94.0281 10.7604 94.2297 10.7755 94.4538 10.8055C94.6925 10.8205 94.9243 10.8505 95.1483 10.8955C95.3723 10.9255 95.574 10.963 95.7532 11.008C95.9471 11.038 96.0892 11.068 96.1789 11.098L95.8204 12.921C95.6559 12.8609 95.3797 12.7934 94.9914 12.7184C94.6179 12.6284 94.1324 12.5834 93.5352 12.5834C93.1466 12.5834 92.7584 12.6284 92.3702 12.7184C91.9967 12.7934 91.7503 12.846 91.6309 12.876V22.7109H89.5473V11.5031C90.0402 11.3231 90.6525 11.158 91.3844 11.008C92.1161 10.843 92.9377 10.7604 93.8489 10.7604ZM100.138 11.008H104.552V12.7634H100.138V18.1647C100.138 18.7499 100.183 19.2375 100.273 19.6276C100.362 20.0027 100.497 20.3028 100.676 20.5278C100.855 20.7379 101.079 20.8879 101.348 20.9779C101.617 21.068 101.931 21.113 102.289 21.113C102.916 21.113 103.417 21.0455 103.79 20.9104C104.178 20.7604 104.447 20.6554 104.597 20.5953L105 22.3283C104.791 22.4333 104.425 22.5608 103.902 22.7109C103.38 22.8759 102.782 22.9584 102.11 22.9584C101.318 22.9584 100.661 22.8609 100.138 22.6658C99.6304 22.4558 99.2198 22.1482 98.9062 21.7431C98.5925 21.338 98.3685 20.8429 98.234 20.2578C98.1147 19.6576 98.0548 18.9675 98.0548 18.1873V7.7447L100.138 7.38462V11.008Z" fill="#07063D"/>
</svg>
