<svg width="80" height="85" viewBox="0 0 80 85" fill="none" xmlns="http://www.w3.org/2000/svg">
<path d="M0.251723 38.9309C1.13592 46.5387 4.55656 55.3846 11.3857 59.4475C21.7118 65.5883 20.8449 75.033 40.9838 79.1399C43.9215 79.752 46.9158 80.039 49.9143 79.9957C51.3814 79.9689 52.8454 79.8466 54.2971 79.6294C67.0989 77.7328 75.7138 68.6949 78.8744 57.792C83.0336 43.4339 74.7291 34.0403 69.2158 28.382C63.7026 22.7236 59.6803 5.08288 39.9159 0.889746C36.9 0.238028 33.8202 -0.057446 30.7375 0.00920526C23.7038 0.185313 16.0303 2.52931 10.7217 7.42688C10.3229 7.79436 9.93515 8.17534 9.55835 8.56982C2.18136 16.2569 -0.954949 28.5581 0.251723 38.9309Z" fill="#F5F8FE"/>
<path d="M39.3672 57.4931L44.7695 83.644L49.7068 75.2854L59.0646 80.318L49.1319 54.8535L39.3672 57.4931Z" fill="#5073EE"/>
<g opacity="0.3">
<path d="M41.1827 66.2868C41.697 66.3755 42.2272 66.3485 42.7275 66.2079C43.2279 66.0674 43.6835 65.8175 44.0551 65.4799C44.5481 65.0143 44.8754 64.3791 45.4956 64.0674C46.0532 63.7873 46.7401 63.8267 47.3538 63.9826C47.9674 64.1384 48.5445 64.3968 49.1581 64.5428C49.7636 64.6842 50.3938 64.7137 51.0119 64.6298C51.63 64.5458 52.2236 64.3499 52.7583 64.0536L51.1994 60.0883L43.9646 59.2598L40.5195 63.0573L41.1827 66.2868Z" fill="#07063D"/>
</g>
<path d="M49.3543 74.2441C49.3242 74.2441 48.5189 71.5335 47.5564 68.1778C46.5939 64.8222 45.8339 62.0919 45.8683 62.0859C45.9028 62.08 46.7016 64.7926 47.6641 68.1522C48.6266 71.5118 49.3845 74.2362 49.3543 74.2441Z" fill="#07063D"/>
<path d="M40.1544 58.8485L34.7521 84.9995L29.8148 76.6429L20.457 81.6734L30.3897 56.209L40.1544 58.8485Z" fill="#5073EE"/>
<g opacity="0.3">
<path d="M27.418 63.8287C27.418 63.8287 28.9553 64.9867 30.7877 64.4541C32.6201 63.9214 33.7591 63.807 34.7517 64.4541C35.7444 65.1011 38.4294 67.2061 38.4294 67.2061L39.0517 64.1897L35.4451 59.6523L31.6813 60.3487L29.0027 60.5874L28.0058 62.3175L27.418 63.8287Z" fill="#07063D"/>
</g>
<path d="M71.8336 35.242C71.8336 37.1181 69.2175 38.7338 68.8342 40.5073C68.4402 42.3341 70.1756 44.7428 69.4156 46.4256C68.6555 48.1084 65.5398 48.712 64.4352 50.233C63.3306 51.754 63.912 54.6027 62.4973 55.9008C61.0827 57.1989 57.9756 56.6524 56.3112 57.6763C54.6468 58.7001 54.0224 61.5291 52.1556 62.2393C50.321 62.9357 47.692 61.3456 45.696 61.7066C43.7581 62.0578 41.9968 64.4547 39.9491 64.4547C37.9014 64.4547 36.1358 62.0578 34.2001 61.7066C32.2062 61.3456 29.5772 62.9357 27.7405 62.2393C25.9038 61.5429 25.2471 58.6883 23.587 57.6763C21.9269 56.6642 18.8177 57.1969 17.3987 55.9008C15.9798 54.6047 16.5784 51.758 15.4609 50.233C14.3434 48.7081 11.2557 48.136 10.4827 46.4256C9.70969 44.7152 11.4581 42.3361 11.064 40.5073C10.6808 38.7318 8.0625 37.1181 8.0625 35.242C8.0625 33.3659 10.6808 31.7482 11.064 29.9747C11.4581 28.1479 9.72046 25.7392 10.4827 24.0564C11.2449 22.3737 14.3584 21.77 15.4609 20.251C16.5633 18.7319 15.9841 15.8813 17.3987 14.5812C18.8134 13.2812 21.9204 13.8296 23.587 12.8058C25.2536 11.7819 25.8737 8.95295 27.7405 8.24473C29.6073 7.53651 32.2041 9.13839 34.2001 8.77738C36.138 8.42623 37.9014 6.02734 39.9491 6.02734C41.9968 6.02734 43.7603 8.42623 45.696 8.77738C47.6898 9.13839 50.3189 7.54637 52.1556 8.24473C54.0224 8.95295 54.6511 11.7957 56.3112 12.8058C57.9713 13.8158 61.0805 13.2851 62.4973 14.5812C63.9141 15.8774 63.3177 18.7241 64.4352 20.251C65.5527 21.7779 68.6404 22.346 69.4156 24.0564C70.1907 25.7668 68.4402 28.146 68.8342 29.9747C69.2175 31.7482 71.8336 33.36 71.8336 35.242Z" fill="#5073EE"/>
<path d="M32.4862 18.8667C32.4862 18.8667 32.4625 18.8411 32.4281 18.7859C32.3936 18.7306 32.3398 18.6419 32.2816 18.5452C32.1546 18.3361 31.9802 18.0283 31.7735 17.6456C31.3579 16.8802 30.8196 15.803 30.3007 14.5878C29.7818 13.3726 29.3834 12.2442 29.1229 11.4314C28.9937 11.0191 28.8947 10.6857 28.8322 10.445C28.8042 10.3385 28.7805 10.2477 28.7633 10.1767C28.7522 10.1462 28.7464 10.1142 28.7461 10.082C28.7628 10.1108 28.7758 10.1413 28.7848 10.1728L28.8731 10.4352C28.9571 10.6778 29.0669 11.0053 29.1983 11.4018C29.4782 12.2166 29.8894 13.3351 30.4041 14.5582C30.9187 15.7813 31.4483 16.8486 31.8445 17.6219L32.3204 18.5353L32.4474 18.7839C32.4631 18.8104 32.476 18.8381 32.4862 18.8667Z" fill="#07063D"/>
<path d="M35.3226 17.8794C35.285 17.8105 35.2568 17.7376 35.2387 17.6624C35.1934 17.5203 35.1332 17.3132 35.0621 17.0567C34.92 16.5458 34.7434 15.8316 34.5841 15.0386C34.4248 14.2455 34.3128 13.5215 34.2482 12.9968C34.2137 12.7344 34.1922 12.5213 34.1793 12.3734C34.1694 12.2974 34.1694 12.2205 34.1793 12.1445C34.2041 12.2178 34.2206 12.2931 34.2288 12.3694L34.3322 12.9869C34.4183 13.5097 34.5475 14.2297 34.7004 15.0208C34.8532 15.8119 35.0233 16.526 35.1439 17.0409C35.2021 17.2816 35.2494 17.4868 35.2882 17.6525C35.3079 17.7269 35.3194 17.8029 35.3226 17.8794Z" fill="#07063D"/>
<path d="M40.3314 17.4246C40.2991 17.4246 40.2194 15.2112 40.1527 12.4828C40.0859 9.7545 40.0558 7.53908 40.0859 7.53711C40.1161 7.53514 40.1979 9.74858 40.2646 12.4809C40.3314 15.2131 40.3615 17.4246 40.3314 17.4246Z" fill="#07063D"/>
<path d="M45.3681 12.877C45.3983 12.877 45.0494 13.9916 44.5908 15.3489C44.1322 16.7061 43.7295 17.7971 43.708 17.7892C43.6865 17.7813 44.0267 16.6746 44.4853 15.3173C44.9439 13.96 45.3358 12.8691 45.3681 12.877Z" fill="#07063D"/>
<path d="M47.4219 18.5947C47.4261 18.5621 47.4355 18.5302 47.4499 18.5L47.5468 18.2396C47.6329 18.0147 47.7621 17.6912 47.9343 17.2927C48.2724 16.5036 48.7547 15.4008 49.3059 14.1974C49.8571 12.994 50.3696 11.911 50.7464 11.1298C50.9316 10.751 51.0845 10.4393 51.2007 10.2065L51.3278 9.95795C51.3601 9.90271 51.3773 9.87312 51.3816 9.87509C51.3737 9.90614 51.3629 9.93651 51.3493 9.96584L51.2395 10.2223L50.8196 11.1594C50.4514 11.9603 49.9583 13.0414 49.4093 14.2388C48.8602 15.4363 48.3736 16.5174 48.0075 17.3203L47.5877 18.2554L47.4692 18.5079C47.4574 18.5385 47.4415 18.5677 47.4219 18.5947Z" fill="#07063D"/>
<path d="M50.1055 19.8835C50.1382 19.8138 50.1793 19.7476 50.2282 19.6863C50.3143 19.56 50.4435 19.3805 50.6029 19.1615C50.9258 18.7255 51.3909 18.1297 51.9314 17.4945C52.4718 16.8593 52.9907 16.3109 53.374 15.9163C53.5656 15.719 53.725 15.5632 53.8369 15.4566C53.8909 15.3975 53.9523 15.3446 54.02 15.2988C53.9783 15.3661 53.9277 15.4284 53.8693 15.4843C53.753 15.6145 53.6066 15.7743 53.4386 15.9637C53.0704 16.37 52.5644 16.9323 52.024 17.5675C51.4835 18.2027 51.012 18.7886 50.6718 19.2148L50.2691 19.7178C50.221 19.7781 50.1662 19.8337 50.1055 19.8835Z" fill="#07063D"/>
<path d="M54.0275 22.8213C54.006 22.8016 55.7113 21.318 57.8322 19.509C59.9531 17.7 61.6929 16.25 61.708 16.2697C61.7231 16.2895 60.0263 17.7749 57.9033 19.584C55.7802 21.393 54.0491 22.843 54.0275 22.8213Z" fill="#07063D"/>
<path d="M60.8706 23.4336C60.663 23.5539 60.4473 23.662 60.2247 23.7571C59.8199 23.9544 59.2708 24.2286 58.6636 24.5462C58.0564 24.8639 57.4966 25.1282 57.081 25.3057C56.8657 25.3945 56.7063 25.4636 56.5858 25.503C56.5269 25.5311 56.4637 25.5511 56.3984 25.5622C56.606 25.4419 56.8218 25.3338 57.0444 25.2387C57.4492 25.0414 57.9983 24.7672 58.6055 24.4496C59.2127 24.132 59.7725 23.8577 60.1881 23.6901C60.4034 23.6013 60.5627 23.5322 60.6833 23.4928C60.7418 23.4639 60.8051 23.4439 60.8706 23.4336Z" fill="#07063D"/>
<path d="M67.1998 25.8406C67.2105 25.8682 65.1822 26.5468 62.6781 27.3577C60.1739 28.1685 58.1219 28.8017 58.1133 28.7761C58.1047 28.7504 60.1287 28.0698 62.635 27.259C65.1413 26.4482 67.189 25.815 67.1998 25.8406Z" fill="#07063D"/>
<path d="M69.2164 36.3888C69.2164 36.4164 67.0094 36.2487 64.2943 36.012C61.5791 35.7753 59.3785 35.5603 59.3828 35.5307C59.3871 35.5011 61.5877 35.6727 64.305 35.9094C67.0223 36.1462 69.2186 36.3612 69.2164 36.3888Z" fill="#07063D"/>
<path d="M67.5929 45.8506C67.58 45.8762 65.5194 45.0082 62.9916 43.9153C60.4637 42.8224 58.4246 41.9129 58.4376 41.8873C58.4505 41.8616 60.5111 42.7277 63.0389 43.8226C65.5668 44.9174 67.6058 45.8249 67.5929 45.8506Z" fill="#07063D"/>
<path d="M60.8139 54.8523C60.7902 54.8701 59.3066 53.2899 57.4958 51.325C55.685 49.3601 54.238 47.7484 54.266 47.7306C54.294 47.7129 55.7733 49.2911 57.5841 51.2579C59.3949 53.2248 60.8376 54.8326 60.8139 54.8523Z" fill="#07063D"/>
<path d="M55.1571 56.0486C55.0901 55.9803 55.0303 55.9063 54.9783 55.8277C54.8685 55.6817 54.7135 55.4667 54.5283 55.2004C54.1537 54.6657 53.652 53.9181 53.1223 53.0796C52.5926 52.2412 52.1404 51.4679 51.8304 50.9096C51.6732 50.6275 51.5461 50.3987 51.4643 50.2389C51.4157 50.1576 51.3753 50.0724 51.3438 49.9844C51.4046 50.058 51.4579 50.1366 51.5031 50.2191C51.6064 50.3927 51.7399 50.6137 51.9014 50.8761C52.2352 51.4304 52.7003 52.1958 53.2278 53.0343C53.7553 53.8727 54.2463 54.6243 54.6037 55.1668C54.7716 55.4272 54.9137 55.6423 55.0236 55.8119C55.0775 55.8861 55.1222 55.9655 55.1571 56.0486Z" fill="#07063D"/>
<path d="M51.6444 60.5659C51.6444 60.5659 51.6229 60.5403 51.5884 60.4851L51.4485 60.2444C51.3258 60.0333 51.16 59.7256 50.9619 59.3428C50.5657 58.5754 50.0554 57.4983 49.5709 56.2791C49.0864 55.06 48.7204 53.9355 48.4943 53.1227C48.3759 52.7124 48.279 52.377 48.2316 52.1462C48.2079 52.0397 48.1885 51.9489 48.1713 51.8779C48.1627 51.8469 48.1577 51.8152 48.1562 51.7832C48.1738 51.8114 48.1862 51.8421 48.1929 51.8739L48.2747 52.1363C48.35 52.381 48.4491 52.7065 48.5697 53.103C48.8237 53.9177 49.2005 55.0383 49.685 56.2594C50.1695 57.4805 50.6647 58.5518 51.0437 59.3271L51.4959 60.2404C51.5432 60.3391 51.5841 60.4219 51.6186 60.489C51.6307 60.5136 51.6394 60.5394 51.6444 60.5659Z" fill="#07063D"/>
<path d="M44.5241 57.3939C44.4775 57.1671 44.4466 56.9378 44.4315 56.7074C44.382 56.2833 44.3024 55.6974 44.1861 55.0562C44.0698 54.4151 43.9342 53.839 43.8308 53.4228C43.7631 53.1999 43.7114 52.9732 43.6758 52.7441C43.7078 52.799 43.7324 52.8574 43.749 52.9177C43.7921 53.0322 43.8459 53.1979 43.9083 53.405C44.0311 53.8173 44.1775 54.3914 44.2959 55.0404C44.3989 55.5904 44.4708 56.1448 44.5112 56.7015C44.5263 56.9146 44.5349 57.0961 44.5349 57.2085C44.5404 57.2705 44.5368 57.3329 44.5241 57.3939Z" fill="#07063D"/>
<path d="M39.867 63.0716C39.862 63.0382 39.862 63.0043 39.867 62.971C39.867 62.8921 39.867 62.7954 39.867 62.681C39.867 62.4285 39.867 62.0635 39.867 61.6137C39.8842 60.7121 39.9295 59.4693 40.007 58.0982C40.0845 56.7272 40.1814 55.4843 40.2611 54.5867C40.2998 54.1369 40.3364 53.7739 40.3644 53.5234C40.3795 53.409 40.3902 53.3123 40.3989 53.2354C40.4014 53.2011 40.4086 53.1673 40.4204 53.1348C40.4254 53.1688 40.4254 53.2033 40.4204 53.2373C40.4204 53.3143 40.4204 53.411 40.4053 53.5273C40.3881 53.7937 40.3666 54.1527 40.3386 54.5907C40.2804 55.504 40.2029 56.739 40.1233 58.1022C40.0436 59.4654 39.9876 60.7161 39.951 61.6157C39.9338 62.0536 39.9187 62.4048 39.9079 62.681C39.9079 62.7974 39.895 62.8921 39.8907 62.971C39.8883 63.0054 39.8803 63.0393 39.867 63.0716Z" fill="#07063D"/>
<path d="M36.0818 53.1348C36.0803 53.3048 36.0586 53.4741 36.0172 53.6398C35.9612 53.9475 35.8708 54.3717 35.7523 54.8353C35.6339 55.2989 35.509 55.7171 35.41 56.0189C35.367 56.184 35.3042 56.3441 35.2227 56.4964C35.2418 56.3278 35.2786 56.1613 35.3325 55.9992L35.6425 54.8156C35.7545 54.3717 35.8578 53.9692 35.9397 53.6319C35.9695 53.4624 36.0171 53.2959 36.0818 53.1348Z" fill="#07063D"/>
<path d="M29.2379 50.1309C28.9559 50.5582 28.6414 50.9669 28.297 51.354C27.981 51.7613 27.6365 52.1495 27.2656 52.5159C27.5471 52.0882 27.8616 51.6795 28.2066 51.2928C28.5211 50.8844 28.8657 50.4962 29.2379 50.1309Z" fill="#07063D"/>
<path d="M25.6488 47.9143C25.6704 47.932 24.3354 49.3702 22.6645 51.124C20.9936 52.8777 19.6177 54.2804 19.5941 54.2666C19.5704 54.2528 20.9075 52.8107 22.5784 51.0569C24.2493 49.3031 25.6252 47.8945 25.6488 47.9143Z" fill="#07063D"/>
<path d="M23.8514 45.4648C23.3234 45.9314 22.7693 46.3726 22.1913 46.7866C21.2547 47.4928 20.4795 48.0492 20.4688 48.0275C20.9972 47.5619 21.5513 47.1214 22.1289 46.7077C22.6799 46.2672 23.2548 45.8524 23.8514 45.4648Z" fill="#07063D"/>
<path d="M21.7459 41.774C21.7588 41.7997 19.8985 42.648 17.5881 43.6659C15.2777 44.6839 13.398 45.4907 13.3829 45.4651C13.3678 45.4394 15.2303 44.5931 17.5407 43.5732C19.8511 42.5533 21.733 41.7484 21.7459 41.774Z" fill="#07063D"/>
<path d="M20.9028 39.9336C20.841 39.9585 20.7758 39.9757 20.709 39.9849C20.582 40.0125 20.399 40.048 20.1729 40.0855C19.7185 40.1644 19.0855 40.2512 18.3836 40.3163C17.6816 40.3814 17.0421 40.409 16.5792 40.4149C16.3488 40.4149 16.1615 40.4149 16.0323 40.4149C15.9649 40.419 15.8973 40.413 15.832 40.3972C16.079 40.3661 16.3278 40.3483 16.577 40.3439C17.0378 40.3183 17.673 40.2788 18.3728 40.2137C19.0726 40.1486 19.7035 40.0737 20.1599 40.0164C20.4051 39.9728 20.6534 39.9451 20.9028 39.9336Z" fill="#07063D"/>
<path d="M20.2203 35.6827C20.0949 35.6922 19.9689 35.6922 19.8435 35.6827L18.8186 35.6354C17.9573 35.5959 16.7601 35.5604 15.4402 35.5663C14.1203 35.5722 12.9232 35.6215 12.0597 35.6689L11.037 35.7261C10.9119 35.7392 10.7859 35.7432 10.6602 35.7379C10.7825 35.7111 10.9071 35.6939 11.0327 35.6866C11.2738 35.661 11.6226 35.6294 12.0533 35.5959C12.9145 35.5308 14.116 35.4716 15.4381 35.4637C16.7601 35.4558 17.9595 35.5052 18.8251 35.5624C19.2557 35.592 19.6067 35.6196 19.8478 35.6432C19.9728 35.6484 20.0973 35.6616 20.2203 35.6827Z" fill="#07063D"/>
<path d="M20.6422 31.949C20.6422 31.9766 19.2405 31.6432 17.5287 31.2053C15.8169 30.7673 14.4367 30.3925 14.4454 30.3649C14.454 30.3373 15.8471 30.6687 17.5589 31.1067C19.2707 31.5446 20.6509 31.9214 20.6422 31.949Z" fill="#07063D"/>
<path d="M21.5472 28.8242C21.5126 28.8223 21.4785 28.8157 21.446 28.8045L21.1596 28.7256C20.9142 28.6545 20.5589 28.5441 20.1261 28.4C18.9953 28.0196 17.887 27.585 16.8059 27.098C15.7252 26.6105 14.6737 26.0705 13.6558 25.4804C13.266 25.2535 12.9538 25.0641 12.7428 24.928L12.5017 24.7682C12.4478 24.7307 12.4198 24.711 12.422 24.707C12.4545 24.7191 12.4856 24.7343 12.5146 24.7524L12.7687 24.8944C12.984 25.0207 13.3026 25.2002 13.6967 25.4192C14.4869 25.8572 15.5936 26.4352 16.8554 26.9974C18.1172 27.5596 19.2928 28.0173 20.1541 28.3251C20.5847 28.477 20.9314 28.5973 21.1747 28.6802L21.4525 28.7768C21.4854 28.7902 21.5171 28.806 21.5472 28.8242Z" fill="#07063D"/>
<path d="M23.5714 25.6682C23.5542 25.6899 22.4647 25.0152 21.1383 24.159C19.8119 23.3029 18.7504 22.5907 18.7698 22.567C18.7892 22.5433 19.8765 23.22 21.2051 24.0762C22.5336 24.9324 23.5886 25.6504 23.5714 25.6682Z" fill="#07063D"/>
<path d="M19.2895 16.0859C19.2895 16.0859 19.3196 16.1017 19.3713 16.1392L19.5866 16.3128L20.3811 16.9559L22.9887 19.0885L25.6069 21.2092L26.3993 21.8543L26.6146 22.0338C26.6406 22.0534 26.6638 22.0759 26.6835 22.1009C26.6835 22.1009 26.6534 22.0871 26.5996 22.0496L26.3842 21.8859C26.1883 21.7419 25.9105 21.5288 25.5682 21.2644C24.8835 20.7357 23.949 19.996 22.9262 19.1654C21.9034 18.3349 20.9883 17.5695 20.3424 17.0092C20.0151 16.7291 19.7524 16.5022 19.5715 16.3404L19.367 16.155C19.3153 16.1116 19.2852 16.0879 19.2895 16.0859Z" fill="#07063D"/>
<path d="M26.0039 16.2656C26.0039 16.2656 26.062 16.309 26.1503 16.4017C26.2386 16.4945 26.3656 16.6306 26.5142 16.7963C26.8135 17.1396 27.2118 17.6249 27.6253 18.1772C28.0387 18.7296 28.3853 19.2465 28.6243 19.6272C28.7449 19.8245 28.8397 19.9724 28.8999 20.081C28.9372 20.1349 28.9662 20.1933 28.9861 20.2546C28.8283 20.0663 28.6844 19.8686 28.5554 19.6627C28.2992 19.2918 27.9418 18.7848 27.5305 18.2325C27.1193 17.6801 26.7317 17.1928 26.4539 16.8397C26.2916 16.6567 26.1413 16.465 26.0039 16.2656Z" fill="#07063D"/>
<g opacity="0.2">
<path d="M17.3984 14.5885L26.767 22.1027L29.0946 20.3963L23.6599 12.7656C23.6599 12.7656 23.2422 13.0458 22.1527 13.3298C21.1127 13.604 18.0229 13.677 17.3984 14.5885Z" fill="#07063D"/>
</g>
<g opacity="0.2">
<path d="M27.8281 8.22847L32.4015 18.7177L35.3255 17.8792L34.3501 8.78084C34.3501 8.78084 33.8485 8.88935 32.7309 8.75914C31.6479 8.63289 29.0231 7.69188 27.8281 8.22847Z" fill="#07063D"/>
</g>
<g opacity="0.3">
<path d="M40.0234 6.03296L40.3313 17.4237L43.0702 17.544L45.8435 8.80075C45.2673 8.69592 44.7193 8.48811 44.2308 8.18919C43.2834 7.63287 41.3498 5.94024 40.0234 6.03296Z" fill="#07063D"/>
</g>
<g opacity="0.2">
<path d="M51.9673 8.1875L47.4219 18.6885L49.8894 19.7716L56.1445 12.6972C55.6743 12.3336 55.2734 11.9009 54.958 11.4169C54.3681 10.543 53.3518 8.53668 51.9673 8.1875Z" fill="#07063D"/>
</g>
<g opacity="0.2">
<path d="M62.646 14.7383L54.1797 22.8266L56.0659 25.1564L64.3384 20.0983C64.066 19.6386 63.8817 19.1395 63.7937 18.6227C63.5956 17.6363 63.5676 15.845 62.646 14.7383Z" fill="#07063D"/>
</g>
<g opacity="0.2">
<path d="M69.3269 23.8633L57.9258 28.1619L58.871 30.8311L68.7908 29.8447C68.7908 29.8447 68.7283 29.5646 68.8597 28.5407C68.9846 27.5484 70.1301 25.331 69.3269 23.8633Z" fill="#07063D"/>
</g>
<g opacity="0.2">
<path d="M71.854 35.2461L59.4237 35.6406L59.3203 38.152L68.7944 40.6929C68.8572 40.3314 68.9838 39.9816 69.169 39.6572C69.8753 38.4499 71.854 36.7454 71.854 35.2461Z" fill="#07063D"/>
</g>
<g opacity="0.2">
<path d="M69.5614 46.0133L58.1172 41.9277L56.9609 44.2142L64.749 49.8622C65.1585 49.503 65.6114 49.1879 66.0991 48.9232C67.0465 48.3688 69.2987 47.4712 69.5614 46.0133Z" fill="#07063D"/>
</g>
<g opacity="0.2">
<path d="M52.7242 45.8457L49.8906 48.0157C50.1059 48.213 53.8805 54.0997 56.2081 57.7336C56.2383 57.7097 56.2699 57.6873 56.3028 57.6665C57.8338 56.7275 60.5597 57.1043 62.0971 56.1751L52.7242 45.8457Z" fill="#07063D"/>
<path d="M47.5179 49.9668L43.2891 51.2886L45.2915 61.8073C45.4216 61.7653 45.5547 61.7317 45.6899 61.7067C47.6837 61.3457 50.3128 62.9358 52.1495 62.2394C52.4009 62.1406 52.6347 62.0076 52.8428 61.8448L47.5179 49.9668Z" fill="#07063D"/>
<path d="M39.7997 64.45L40.4737 50.7077L36.8132 49.8574L34.0938 61.694L34.1928 61.7098C36.0876 62.0471 37.8123 64.3316 39.7997 64.45Z" fill="#07063D"/>
<path d="M30.6057 48.373C30.6057 48.373 25.7739 54.3032 23.2461 57.4951C23.3631 57.5491 23.4767 57.609 23.5863 57.6746C25.2464 58.6926 25.873 61.5274 27.7398 62.2376C27.8259 62.2692 27.9142 62.2948 28.0025 62.3185L34.7528 50.6121L30.6057 48.373Z" fill="#07063D"/>
<path d="M25.645 43.6016L15.3398 50.09C15.3786 50.1373 15.4217 50.1827 15.4561 50.232C16.5758 51.7629 15.9793 54.6017 17.394 55.8998C17.5246 56.0173 17.669 56.1212 17.8246 56.2095C21.4657 52.4494 28.0028 45.6986 28.2396 45.4639L25.645 43.6016Z" fill="#07063D"/>
<path d="M23.2818 38.9668L11.0969 40.7699C11.2929 42.5612 9.75119 44.822 10.4768 46.4238C10.5205 46.5217 10.5731 46.6161 10.634 46.7059C14.8973 44.7608 23.8051 40.7147 24.1754 40.693L23.2818 38.9668Z" fill="#07063D"/>
<path d="M22.6185 32.7471L11.1011 29.7031C11.0903 29.7939 11.0774 29.8846 11.0601 29.9734C10.6769 31.7489 8.05859 33.3646 8.05859 35.2407C8.05919 35.3656 8.0707 35.4903 8.09304 35.6135H22.1512L22.6185 32.7471Z" fill="#07063D"/>
<path d="M10.5273 23.9746C14.8337 26.0874 23.2462 30.3624 23.2462 30.3624L25.3176 26.7582L15.5895 20.0508C15.5464 20.1198 15.5055 20.1908 15.4582 20.2481C14.3622 21.7454 11.3628 22.3293 10.5273 23.9746Z" fill="#07063D"/>
</g>
<path d="M71.8312 35.2431L71.8183 35.1169C71.8132 34.9932 71.7944 34.8702 71.7623 34.75C71.637 34.2769 71.4181 33.8289 71.1164 33.4282C70.746 32.8837 70.1862 32.2741 69.6091 31.5028C69.2833 31.0925 69.0331 30.636 68.8684 30.1514C68.7283 29.5859 68.7283 28.9987 68.8684 28.4332C68.989 27.8315 69.185 27.212 69.3551 26.5551C69.5252 25.8982 69.6845 25.188 69.5252 24.462C69.435 24.0945 69.2513 23.7518 68.989 23.4618C68.7077 23.1665 68.3865 22.9053 68.033 22.6845C67.3181 22.219 66.4956 21.8481 65.7097 21.3628C65.3031 21.1226 64.9338 20.8333 64.6116 20.5027C64.2953 20.1438 64.0656 19.7276 63.9376 19.2815C63.662 18.3839 63.5996 17.4251 63.3907 16.4664C63.2995 15.9782 63.1197 15.5074 62.8589 15.0736C62.5757 14.6369 62.1459 14.2957 61.6337 14.101C61.105 13.9064 60.5516 13.7738 59.9865 13.7065C59.4159 13.6197 58.8303 13.5585 58.2446 13.4638C57.6446 13.3846 57.0627 13.216 56.522 12.9647C55.9859 12.6695 55.5319 12.2643 55.1957 11.7811C54.8382 11.3116 54.5303 10.8065 54.2031 10.3074C53.8896 9.79674 53.5139 9.32024 53.0834 8.88702C52.6397 8.44879 52.0344 8.17678 51.3845 8.12356C50.7206 8.10106 50.0568 8.17225 49.4165 8.33465C48.7705 8.47866 48.1074 8.65424 47.4291 8.77063C46.7435 8.91867 46.0283 8.90646 45.3491 8.73512C44.6871 8.49718 44.068 8.16931 43.5125 7.76255C42.9376 7.368 42.3777 6.97344 41.7641 6.62229C41.1504 6.27114 40.4549 6.01665 39.7315 6.09162H39.5958C39.5506 6.09162 39.5075 6.10937 39.4645 6.11726C39.3762 6.13699 39.2857 6.1508 39.1996 6.17447C39.0262 6.22501 38.8565 6.28563 38.6915 6.35597C38.3584 6.50109 38.0387 6.67064 37.7354 6.86297C37.1239 7.25752 36.5447 7.68758 35.916 8.07819C35.603 8.27896 35.2716 8.45453 34.9255 8.60295C34.5709 8.7483 34.1912 8.83575 33.8037 8.86138C33.0268 8.86595 32.2534 8.76557 31.5084 8.56349C30.7583 8.36728 29.9932 8.22286 29.2196 8.13146C28.8332 8.09663 28.4432 8.12063 28.0655 8.20248C27.6891 8.29833 27.3421 8.47251 27.0513 8.71145C26.457 9.18688 26.0436 9.82606 25.6302 10.4534C25.2399 11.1103 24.7836 11.7324 24.2672 12.3117C23.9939 12.5987 23.6655 12.8374 23.2983 13.016C22.9234 13.1784 22.5298 13.3015 22.1248 13.383C21.3152 13.5467 20.4884 13.6157 19.6723 13.7499C18.8563 13.884 18.023 14.0951 17.433 14.6199C17.1482 14.8978 16.9284 15.2261 16.787 15.5846C16.6445 15.9461 16.5399 16.3194 16.4748 16.6992C16.3241 17.4607 16.2595 18.2419 16.0442 19.0093C15.9517 19.3987 15.7971 19.7736 15.5856 20.1219C15.3626 20.467 15.0704 20.7702 14.7243 21.0156C14.0439 21.5167 13.2709 21.8875 12.5302 22.3018C12.1591 22.5064 11.803 22.7331 11.4643 22.9804C11.1274 23.2271 10.844 23.5296 10.6289 23.8721C10.4238 24.221 10.32 24.6123 10.3275 25.0085C10.3351 25.4067 10.3863 25.8032 10.4803 26.1921C10.6612 26.9812 10.9347 27.7565 11.0811 28.5594C11.1679 28.9715 11.1853 29.3933 11.1328 29.8102C11.0716 30.226 10.9255 30.6275 10.7021 30.9938C10.2521 31.7139 9.66643 32.3471 9.14751 33.0179C8.88102 33.3484 8.6489 33.7011 8.45418 34.0713C8.24085 34.4324 8.12914 34.8365 8.12914 35.2471C8.12914 35.6577 8.24085 36.0618 8.45418 36.4229C8.64857 36.7932 8.88071 37.146 9.14751 37.4763C9.66643 38.1471 10.2521 38.7803 10.7021 39.5004C10.9214 39.8598 11.0674 40.2529 11.1328 40.6604C11.1875 41.0716 11.1729 41.4881 11.0897 41.8953C10.9454 42.7061 10.672 43.4834 10.4889 44.2725C10.3957 44.6615 10.3445 45.058 10.3361 45.4561C10.3276 45.8528 10.4307 46.2448 10.6354 46.5944C10.8488 46.938 11.1316 47.2413 11.4687 47.4881C11.8074 47.7354 12.1634 47.9621 12.5345 48.1667C13.2752 48.581 14.0417 48.9558 14.7307 49.453C15.0763 49.6989 15.3684 50.002 15.592 50.3466C15.8052 50.6935 15.9598 51.068 16.0506 51.4573C16.253 52.2267 16.3219 53.0079 16.4813 53.7694C16.5481 54.149 16.6534 54.5222 16.7956 54.884C16.9337 55.2423 17.1498 55.5712 17.4308 55.8506C18.0273 56.3813 18.867 56.5924 19.6723 56.7266C20.4776 56.8607 21.3152 56.9238 22.1248 57.0935C22.5304 57.1753 22.9247 57.2983 23.3004 57.4604C23.6671 57.6397 23.9954 57.8783 24.2694 58.1647C24.7806 58.7449 25.2325 59.367 25.6194 60.023C26.0328 60.6504 26.4463 61.2896 27.0405 61.765C27.3308 62.0035 27.6771 62.1776 28.0525 62.274C28.4336 62.3621 28.828 62.3915 29.2196 62.3608C29.9918 62.2656 30.7554 62.1186 31.5041 61.9208C32.2495 61.7172 33.0238 61.6161 33.8016 61.621C34.1891 61.6477 34.5687 61.7358 34.9234 61.8814C35.2692 62.0302 35.6005 62.2058 35.9138 62.4061C36.5426 62.8007 37.1196 63.2367 37.7333 63.6194C38.0352 63.8131 38.3543 63.9833 38.6872 64.1284C38.8523 64.1984 39.022 64.259 39.1953 64.3099C39.2836 64.3316 39.3719 64.3473 39.4601 64.3671L39.5936 64.3927H39.7271C40.4528 64.4677 41.1504 64.1954 41.7619 63.862C42.3734 63.5286 42.9354 63.1084 43.5081 62.7218C44.0645 62.315 44.6843 61.9872 45.347 61.7492C46.0263 61.5789 46.7412 61.5667 47.427 61.7137C48.1052 61.8321 48.7598 62.0076 49.4144 62.1517C50.0558 62.3122 50.72 62.3834 51.3845 62.3627C52.0336 62.3074 52.6376 62.0349 53.0812 61.5973C53.5105 61.1624 53.886 60.6854 54.2009 60.1749C54.526 59.6778 54.8339 59.1728 55.1914 58.7013C55.5296 58.2188 55.9841 57.8139 56.5199 57.5176C57.0603 57.2661 57.6423 57.0981 58.2424 57.0205C58.8303 56.9238 59.4138 56.8627 59.9844 56.7778C60.5499 56.7073 61.1033 56.5714 61.6316 56.3734C62.1433 56.178 62.5728 55.8371 62.8567 55.4008C63.116 54.9665 63.2949 54.4959 63.3864 54.0081C63.6017 53.0493 63.6577 52.0886 63.9355 51.191C64.0621 50.745 64.292 50.3292 64.6094 49.9718C64.9306 49.6403 65.3001 49.3508 65.7076 49.1117C66.4935 48.6264 67.316 48.2555 68.0287 47.7899C68.3838 47.5696 68.706 47.3076 68.9869 47.0107C69.2488 46.7215 69.4319 46.3793 69.5209 46.0125C69.596 45.6581 69.6069 45.2949 69.5532 44.9373C69.5087 44.5945 69.4411 44.2545 69.3508 43.9194C69.1785 43.2624 68.9847 42.643 68.8641 42.0413C68.724 41.4757 68.724 40.8886 68.8641 40.323C69.0297 39.8388 69.2798 39.3825 69.6048 38.9717C70.1884 38.2003 70.7503 37.5907 71.1121 37.0463C71.4141 36.6457 71.6331 36.1977 71.758 35.7245C71.7903 35.6043 71.809 35.4813 71.814 35.3576L71.8269 35.2333C71.8269 35.2333 71.8269 35.2747 71.8269 35.3576C71.8228 35.4818 71.8055 35.6053 71.7753 35.7265C71.6527 36.2034 71.4336 36.6551 71.1293 37.0581C70.7611 37.6065 70.2034 38.2181 69.6221 38.9894C69.2991 39.397 69.0524 39.851 68.8921 40.3329C68.7521 40.8925 68.7521 41.4738 68.8921 42.0334C69.0127 42.6252 69.2086 43.2506 69.3831 43.9075C69.4769 44.2453 69.5488 44.5878 69.5984 44.9334C69.652 45.2956 69.6411 45.6633 69.5661 46.0223C69.4762 46.3976 69.2902 46.7478 69.0235 47.0442C68.7398 47.3444 68.4148 47.6097 68.0567 47.8333C67.3375 48.3028 66.5172 48.6757 65.7355 49.159C65.3364 49.3966 64.9743 49.6827 64.659 50.0093C64.348 50.3612 64.1233 50.7702 64.0001 51.2087C63.7266 52.0965 63.6663 53.0552 63.4553 54.0199C63.3643 54.5156 63.183 54.9937 62.9192 55.4344C62.6283 55.8834 62.1874 56.2348 61.6617 56.4366C61.1281 56.6373 60.5688 56.7752 59.9973 56.8469C59.4245 56.9337 58.8389 56.9948 58.2554 57.0915C57.6629 57.169 57.0883 57.3349 56.5543 57.5827C56.0334 57.8723 55.5916 58.267 55.2624 58.7368C54.9093 59.2043 54.6014 59.7074 54.2741 60.2085C53.9574 60.7241 53.5789 61.2058 53.1458 61.6446C52.688 62.097 52.0637 62.3781 51.3931 62.4338C50.7192 62.458 50.0452 62.3868 49.395 62.2227C48.7383 62.0787 48.0837 61.9051 47.4119 61.7887C46.7411 61.6448 46.0418 61.6563 45.3771 61.8222C44.7246 62.0579 44.1142 62.3817 43.5663 62.7829C42.9957 63.1676 42.4337 63.5819 41.8136 63.9291C41.6521 64.008 41.4992 64.1007 41.3313 64.1658C41.2473 64.2014 41.1655 64.2388 41.0815 64.2704L40.821 64.3552C40.4677 64.4664 40.0925 64.5067 39.7207 64.4736L39.5807 64.4637C39.5355 64.4637 39.4903 64.446 39.4429 64.4381C39.3525 64.4184 39.2599 64.4026 39.1716 64.3789C38.9927 64.3283 38.8179 64.2663 38.6484 64.1935C38.3105 64.0466 37.9864 63.8744 37.6795 63.6786C37.0615 63.284 36.4823 62.854 35.86 62.4653C35.5509 62.2689 35.2246 62.096 34.8846 61.9485C34.5406 61.8083 34.1727 61.7235 33.7973 61.6979C33.0296 61.6948 32.2657 61.7951 31.5299 61.9958C30.7734 62.1997 30.0011 62.3507 29.2196 62.4476C28.8203 62.4833 28.4173 62.4586 28.0267 62.3746C27.6355 62.2747 27.2745 62.0938 26.9716 61.8459C26.3601 61.3547 25.9424 60.7096 25.529 60.0802C25.1459 59.4293 24.6975 58.8125 24.1897 58.2377C23.9251 57.9598 23.6069 57.7291 23.2509 57.5571C22.884 57.3973 22.4982 57.2769 22.1011 57.198C21.3001 57.0363 20.4755 56.9672 19.6529 56.8311C19.2386 56.768 18.8313 56.6702 18.4364 56.5391C18.0358 56.4046 17.6695 56.1965 17.3598 55.9276C17.0659 55.64 16.8407 55.2993 16.6988 54.9274C16.5534 54.56 16.446 54.1808 16.3779 53.795C16.2272 53.0276 16.1626 52.2464 15.9473 51.4889C15.8579 51.1094 15.7069 50.7443 15.4994 50.4058C15.2815 50.0713 14.9966 49.7775 14.6597 49.5398C13.9922 49.0486 13.2214 48.6777 12.4785 48.2614C12.1037 48.0543 11.7441 47.8249 11.4019 47.5749C11.0536 47.3191 10.7614 47.0052 10.5406 46.6497C10.328 46.2861 10.2212 45.8784 10.2306 45.466C10.2357 45.0577 10.2876 44.6511 10.3856 44.2528C10.5686 43.4637 10.8421 42.6745 10.9842 41.8854C11.0655 41.488 11.0793 41.0814 11.0251 40.6801C10.9599 40.2813 10.8138 39.8973 10.5945 39.5477C10.1638 38.8375 9.56954 38.2082 9.04631 37.5316C8.77364 37.1944 8.53509 36.8352 8.3336 36.4584C8.11459 36.0833 8 35.6646 8 35.2392C8 34.8139 8.11459 34.3951 8.3336 34.02C8.53233 33.6443 8.76876 33.2864 9.03985 32.9508C9.56308 32.2741 10.1466 31.6448 10.5858 30.9366C10.805 30.5863 10.951 30.2016 11.0165 29.8023C11.0667 29.4007 11.0522 28.9946 10.9734 28.5969C10.8292 27.8078 10.5557 27.0187 10.3727 26.2296C10.2765 25.8317 10.2253 25.4258 10.2198 25.0183C10.2112 24.6057 10.3187 24.1981 10.532 23.8347C10.7542 23.4807 11.0462 23.1676 11.3933 22.9114C11.735 22.6607 12.0946 22.4314 12.4699 22.2249C13.2127 21.8086 13.9771 21.4358 14.6511 20.9465C14.9873 20.7088 15.2715 20.415 15.4887 20.0805C15.6951 19.7411 15.8454 19.3754 15.9344 18.9955C16.1346 18.2379 16.2035 17.4587 16.365 16.6913C16.4323 16.3055 16.539 15.9264 16.6837 15.5589C16.8135 15.1828 17.0395 14.8404 17.3429 14.5604C17.6462 14.2804 18.0182 14.0709 18.4278 13.9491C18.8227 13.818 19.2299 13.7203 19.6443 13.6572C20.4668 13.521 21.2915 13.4599 22.0925 13.2922C22.4888 13.211 22.8743 13.0906 23.2423 12.9332C23.5972 12.7597 23.9146 12.5284 24.1789 12.2506C24.6868 11.6758 25.1351 11.0589 25.5182 10.408C25.9316 9.77871 26.3494 9.13362 26.963 8.64437C27.2674 8.39281 27.6316 8.20975 28.0267 8.10976C28.4174 8.02653 28.8203 8.00188 29.2196 8.03676C29.9962 8.13191 30.7642 8.27961 31.517 8.47866C32.2524 8.68095 33.0165 8.782 33.7843 8.77852C34.1563 8.75135 34.5205 8.66594 34.8609 8.52601C35.2021 8.38042 35.5285 8.20746 35.8363 8.00914C36.4608 7.61459 37.04 7.18256 37.6579 6.79787C37.9644 6.60136 38.2885 6.42911 38.6269 6.28298C38.7961 6.21068 38.9702 6.14809 39.1479 6.09556C39.2384 6.07189 39.331 6.05808 39.4214 6.03835L39.557 6.01073H39.697C40.0688 5.97856 40.4438 6.0189 40.7973 6.1291L41.0578 6.21393C41.1418 6.24549 41.2236 6.28298 41.3076 6.31849C41.4777 6.38556 41.6306 6.47631 41.7899 6.55522C42.4122 6.90242 42.972 7.3167 43.5448 7.70139C44.0922 8.10225 44.7018 8.42605 45.3534 8.66213C46.018 8.82898 46.7176 8.84051 47.3882 8.69567C48.06 8.58125 48.7146 8.40764 49.3713 8.26363C50.0216 8.09978 50.6954 8.02793 51.3695 8.05057C52.0398 8.10699 52.6638 8.38796 53.1222 8.83968C53.5558 9.27934 53.9349 9.76166 54.2526 10.2778C54.5799 10.7769 54.8856 11.282 55.2387 11.7475C55.5673 12.2183 56.0092 12.6138 56.5307 12.9036C57.0642 13.1522 57.639 13.3182 58.2317 13.3948C58.8152 13.4915 59.4009 13.5526 59.9736 13.6394C60.5449 13.712 61.1041 13.8499 61.638 14.0497C62.1637 14.2513 62.6051 14.6018 62.8976 15.0499C63.1606 15.491 63.3418 15.969 63.4338 16.4644C63.6491 17.4291 63.7051 18.3879 63.9764 19.2756C64.101 19.7136 64.3256 20.1224 64.6353 20.475C64.95 20.8028 65.3122 21.0896 65.7119 21.3273C66.4935 21.8106 67.316 22.1835 68.033 22.653C68.3911 22.8766 68.7161 23.1419 68.9998 23.4421C69.2667 23.7379 69.4534 24.0874 69.5445 24.462C69.6196 24.8217 69.6305 25.1901 69.5768 25.5529C69.5275 25.8979 69.4555 26.2398 69.3615 26.5768C69.1893 27.2357 68.9912 27.8532 68.8706 28.4529C68.7305 29.0125 68.7305 29.5938 68.8706 30.1534C69.0308 30.6353 69.2775 31.0893 69.6005 31.4969C70.1797 32.2702 70.7374 32.8778 71.1078 33.4282C71.4115 33.8315 71.6305 34.2831 71.7537 34.7598C71.784 34.881 71.8013 35.0045 71.8054 35.1287C71.8312 35.1997 71.8312 35.2431 71.8312 35.2431Z" fill="#07063D"/>
<path d="M33.956 62.3614C33.9861 62.3614 33.1916 65.3205 32.1817 68.9544C31.1719 72.5882 30.3278 75.5296 30.2977 75.5237C30.2676 75.5178 31.0621 72.5645 32.0719 68.9287C33.0818 65.2929 33.9344 62.3456 33.956 62.3614Z" fill="#07063D"/>
<path d="M39.9451 53.1534C50.7404 53.1534 59.4918 45.1354 59.4918 35.2447C59.4918 25.354 50.7404 17.3359 39.9451 17.3359C29.1498 17.3359 20.3984 25.354 20.3984 35.2447C20.3984 45.1354 29.1498 53.1534 39.9451 53.1534Z" fill="white"/>
<path d="M25.6953 37.4748C25.3146 37.0593 25.3522 36.4114 25.7786 36.0428L28.5576 33.6401C28.9575 33.2943 29.5575 33.3195 29.9269 33.6977L35.8159 39.7253C36.1799 40.0978 36.769 40.1286 37.1698 39.796L51.8078 27.6483C52.2373 27.2919 52.8755 27.3561 53.2255 27.791L55.3756 30.463C55.7208 30.8921 55.6542 31.5196 55.2265 31.8665L36.0696 47.4068C35.6588 47.74 35.0596 47.6957 34.7023 47.3057L25.6953 37.4748Z" fill="#5073EE"/>
<path d="M29.9502 19.8517L29.7219 19.9898L29.0502 20.3844C28.753 20.5599 28.4042 20.8105 27.9951 21.0867C27.7798 21.2287 27.5817 21.4003 27.3491 21.5739L26.9982 21.8442C26.8776 21.9389 26.7635 22.0415 26.6407 22.15C25.4499 23.1678 24.4038 24.3191 23.5272 25.5767L23.1439 26.1409C23.0083 26.3283 22.9049 26.5354 22.7801 26.7327C22.6552 26.93 22.5324 27.143 22.4205 27.36C22.3085 27.5771 22.2052 27.8 22.0889 28.0249C22.0351 28.1373 21.9748 28.2478 21.9231 28.3642C21.8714 28.4806 21.8262 28.5989 21.7767 28.7193C21.6798 28.956 21.5764 29.1947 21.4817 29.4413C21.3223 29.9404 21.1199 30.4454 20.9994 30.984C20.3855 33.3142 20.2831 35.733 20.6979 38.0998C21.2377 41.1476 22.6307 44.0151 24.7409 46.4226C26.851 48.83 29.6063 50.6952 32.7379 51.8361C35.8695 52.977 39.2704 53.3546 42.6088 52.9321C45.9471 52.5096 49.109 51.3014 51.7857 49.4254C52.4615 48.9495 53.1044 48.4356 53.7107 47.8867L54.1413 47.4684C54.2877 47.3303 54.4298 47.1903 54.5719 47.0423L54.981 46.6103C55.1102 46.4603 55.2373 46.3104 55.3665 46.1625C57.3141 43.864 58.6135 41.1612 59.1496 38.2931C59.2756 37.6272 59.3612 36.9555 59.4058 36.2809C59.4274 35.9475 59.4274 35.618 59.4403 35.2945C59.4532 34.971 59.4145 34.6415 59.4015 34.32C59.4015 34.1602 59.3865 33.9984 59.38 33.8386C59.3736 33.6788 59.3413 33.523 59.324 33.3651C59.281 33.0515 59.2401 32.7398 59.1991 32.432C59.1582 32.1243 59.0699 31.8244 59.0054 31.5246C58.9514 31.2272 58.8795 30.9328 58.79 30.6427L58.523 29.7885C58.4812 29.6484 58.4301 29.5107 58.3702 29.3762C58.3142 29.2401 58.2582 29.104 58.2044 28.9698C58.0902 28.7035 57.989 28.4313 57.8663 28.1807C57.7436 27.9302 57.6101 27.6757 57.483 27.4291C56.5466 25.6455 55.2904 24.0185 53.7666 22.6155C52.6122 21.5645 51.3239 20.6445 49.9296 19.8754L49.1071 19.4433C48.983 19.3767 48.855 19.3161 48.7239 19.2618L48.3621 19.104L47.7162 18.8239C47.5224 18.7331 47.3307 18.6819 47.1693 18.6266L46.4199 18.3623L46.1659 18.2676L46.4243 18.3524L47.1757 18.6089C47.3394 18.668 47.531 18.7193 47.7269 18.8061L48.3729 19.0823L48.7368 19.2401C48.8686 19.293 48.9973 19.3523 49.1222 19.4177L49.9469 19.8478C51.3503 20.6121 52.6467 21.5303 53.8075 22.582C55.3404 23.9839 56.6055 25.6117 57.5498 27.3975C57.6768 27.6481 57.806 27.8986 57.9374 28.1551C58.0687 28.4115 58.1527 28.6818 58.2776 28.9442L58.4455 29.3506C58.5055 29.4857 58.5565 29.6241 58.5984 29.7648C58.6888 30.0489 58.7793 30.333 58.8697 30.623C58.963 30.9142 59.0385 31.2099 59.0958 31.5088C59.1604 31.8086 59.2379 32.1006 59.2939 32.4182C59.3499 32.7358 59.3757 33.0416 59.4188 33.3572C59.4381 33.5151 59.4661 33.6729 59.4769 33.8327C59.4877 33.9925 59.492 34.1542 59.4984 34.316C59.5114 34.6395 59.5307 34.9651 59.5393 35.3024C59.548 35.6397 59.5286 35.9633 59.5049 36.2888C59.2849 39.9 57.8708 43.3644 55.4504 46.2216L55.0586 46.6714L54.6451 47.1074C54.5116 47.2554 54.3674 47.3974 54.2145 47.5355L53.7839 47.9577C53.1738 48.5098 52.5266 49.0264 51.846 49.5043C49.1563 51.3881 45.9797 52.6012 42.626 53.0254C39.2723 53.4496 35.8558 53.0704 32.7096 51.9248C29.5635 50.7792 26.795 48.9062 24.674 46.4885C22.5531 44.0708 21.152 41.1908 20.6075 38.1294C20.389 36.8953 20.3168 35.6432 20.3922 34.3949C20.4465 33.2435 20.6275 32.1001 20.9326 30.982C21.0532 30.4415 21.2577 29.9365 21.4171 29.4334C21.514 29.1888 21.6195 28.9481 21.7185 28.7094C21.7681 28.5911 21.8176 28.4727 21.8649 28.3543C21.9123 28.236 21.9791 28.1275 22.0329 28.013C22.147 27.7881 22.2482 27.5672 22.3666 27.3482C22.4851 27.1292 22.6121 26.926 22.7305 26.7189C22.849 26.5118 22.9609 26.3066 23.0966 26.1172L23.4841 25.553C24.3653 24.2935 25.4197 23.1431 26.6213 22.1303C26.7441 22.0257 26.8582 21.9192 26.9788 21.8245L27.3319 21.5542C27.5644 21.3826 27.7625 21.2129 27.9779 21.0709C28.3977 20.7947 28.7422 20.5481 29.0415 20.3745L29.7198 19.9799C29.8662 19.8931 29.9502 19.8517 29.9502 19.8517Z" fill="#07063D"/>
</svg>
