<svg width="81" height="80" viewBox="0 0 81 80" fill="none" xmlns="http://www.w3.org/2000/svg">
<path d="M80.741 38.9309C79.8458 46.5387 76.3826 55.3846 69.4684 59.4475C59.0138 65.5883 59.8915 75.033 39.5018 79.1399C36.5276 79.752 33.4961 80.039 30.4603 79.9958C28.9748 79.9689 27.4927 79.8466 26.0228 79.6294C13.0617 77.7328 4.33955 68.6949 1.13962 57.792C-3.07136 43.4339 5.33656 34.0403 10.9184 28.382C16.5003 22.7236 20.5726 5.08288 40.5831 0.889746C43.6365 0.238028 46.7547 -0.057446 49.8757 0.00920526C56.997 0.185313 64.766 2.52931 70.1407 7.42688C70.5444 7.79436 70.937 8.17534 71.3185 8.56982C78.7873 16.2569 81.9627 28.5581 80.741 38.9309Z" fill="#F5F8FE"/>
<path d="M25.7476 55.9973C25.7476 58.57 27.8349 60.6519 30.4076 60.6519C31.8585 60.6519 33.1583 59.9885 34.0105 58.9476C34.4474 58.4136 35.0838 58.0792 35.7742 58.0792C36.3891 58.0792 36.95 58.3273 37.3545 58.7318C37.759 59.1363 38.0071 59.6919 38.0071 60.3121V71.9892H49.6896C50.9247 71.9892 51.9225 70.9914 51.9225 69.7562C51.9225 69.4111 51.8416 69.0767 51.6906 68.78C51.5396 68.4834 51.3292 68.2137 51.0595 67.9926C50.0186 67.1404 49.3498 65.8405 49.3498 64.3897C49.3498 61.8115 51.4371 59.7242 54.0044 59.7242C56.5717 59.7242 58.659 61.8115 58.659 64.3897C58.659 65.8405 57.9956 67.135 56.9547 67.9926C56.4207 68.4294 56.0863 69.0659 56.0863 69.7562C56.0863 70.3711 56.3344 70.932 56.7389 71.3366C57.1435 71.7411 57.699 71.9892 58.3193 71.9892H70.0017V40H58.3193C57.0841 40 56.0863 40.9978 56.0863 42.2329C56.0863 42.5781 56.1726 42.9125 56.3182 43.2092C56.4693 43.5058 56.685 43.7755 56.9493 43.9966C57.9902 44.8488 58.6537 46.1487 58.6537 47.5995C58.6537 50.1776 56.5717 52.2649 53.999 52.2649C51.4263 52.2649 49.3444 50.1776 49.3444 47.5995C49.3444 46.1487 50.0132 44.8542 51.0541 43.9966C51.5881 43.5597 51.9171 42.9233 51.9171 42.2329C51.9171 41.6181 51.669 41.0571 51.2645 40.6526C50.86 40.2481 50.3044 40 49.6842 40H38.0017V51.6771C38.0017 52.9122 37.0039 53.91 35.7688 53.91C35.4236 53.91 35.0946 53.8237 34.7926 53.6781C34.4959 53.527 34.2262 53.3113 34.0051 53.047C33.1529 52.0061 31.8531 51.3426 30.4022 51.3426C27.8295 51.3426 25.7422 53.43 25.7422 55.9973H25.7476Z" fill="#1916DA"/>
<path d="M54.0012 52.2595C56.5739 52.2595 58.6558 50.1722 58.6558 47.5995C58.6558 46.1486 57.9924 44.8488 56.9515 43.9966C56.4175 43.5597 56.0831 42.9233 56.0831 42.2329C56.0831 41.618 56.3312 41.0571 56.7357 40.6526C57.1402 40.2481 57.6958 40 58.316 40H69.9931V28.3175C69.9931 27.0824 68.9953 26.0846 67.7655 26.0846C67.4204 26.0846 67.086 26.1655 66.7893 26.3165C66.4927 26.4675 66.223 26.6779 66.0018 26.9476C65.1497 27.9885 63.8498 28.6573 62.399 28.6573C59.8208 28.6573 57.7335 26.57 57.7335 24.0027C57.7335 21.4353 59.8208 19.348 62.399 19.348C63.8498 19.348 65.1443 20.0114 66.0018 21.0524C66.4387 21.5864 67.0752 21.9208 67.7655 21.9208C68.3804 21.9208 68.9413 21.6727 69.3458 21.2628C69.7504 20.8582 69.9985 20.3027 69.9985 19.6824V8H38.0093V19.6824C38.0093 20.9176 39.0071 21.9154 40.2368 21.9154C40.582 21.9154 40.9164 21.8291 41.2131 21.6834C41.5097 21.5324 41.7794 21.3167 42.0005 21.0524C42.8527 20.0114 44.1526 19.348 45.6034 19.348C48.1815 19.348 50.2689 21.4353 50.2689 24.0027C50.2689 26.57 48.1815 28.6573 45.6034 28.6573C44.1526 28.6573 42.8581 27.9885 42.0005 26.9476C41.5637 26.4136 40.9272 26.0846 40.2368 26.0846C39.622 26.0846 39.061 26.3327 38.6565 26.7372C38.252 27.1417 38.0039 27.6973 38.0039 28.3175V40H49.681C50.9161 40 51.9139 40.9978 51.9139 42.2329C51.9139 42.5781 51.8276 42.9071 51.682 43.2091C51.5309 43.5058 51.3152 43.7754 51.0509 43.9966C50.01 44.8488 49.3465 46.1486 49.3465 47.5995C49.3465 50.1722 51.4339 52.2595 54.0012 52.2595Z" fill="#BACFF8"/>
<path d="M18.2649 55.9948C18.2649 58.5675 16.1776 60.6494 13.6049 60.6494C12.154 60.6494 10.8542 59.986 10.002 58.9451C9.56514 58.4165 8.9287 58.0821 8.23832 58.0821C7.62346 58.0821 7.06253 58.3302 6.65801 58.7401C6.2481 59.1392 6 59.7002 6 60.3204V71.9975H37.9946V60.3204C37.9946 59.0853 36.9968 58.0875 35.767 58.0875C35.4218 58.0875 35.0928 58.1738 34.7908 58.3248C34.4941 58.4758 34.2245 58.6916 34.0033 58.9558C33.1458 60.0022 31.8513 60.6602 30.395 60.6602C27.8169 60.6602 25.735 58.5729 25.735 56.0056C25.735 53.4382 27.8223 51.3509 30.395 51.3509C31.8459 51.3509 33.1458 52.0143 34.0033 53.0553C34.4402 53.5893 35.0713 53.9183 35.767 53.9183C36.3819 53.9183 36.9374 53.6702 37.3419 53.2656C37.7465 52.8611 37.9946 52.3002 37.9946 51.6853V40.0137H6V51.6853C6 52.9205 7.0032 53.9183 8.23293 53.9183C8.57812 53.9183 8.90712 53.8374 9.20916 53.6863C9.50581 53.5353 9.77549 53.3196 9.99663 53.0553C10.8488 52.0143 12.1486 51.3509 13.5995 51.3509C16.1776 51.3509 18.2595 53.4382 18.2595 56.0056L18.2649 55.9948Z" fill="#BACFF8"/>
<path d="M18.2649 55.9948C18.2649 58.5675 16.1776 60.6494 13.6049 60.6494C12.154 60.6494 10.8542 59.986 10.002 58.9451C9.56514 58.4165 8.9287 58.0821 8.23832 58.0821C7.62346 58.0821 7.06253 58.3302 6.65801 58.7401C6.2481 59.1392 6 59.7002 6 60.3204V71.9975H37.9946V60.3204C37.9946 59.0853 36.9968 58.0875 35.767 58.0875C35.4218 58.0875 35.0928 58.1738 34.7908 58.3248C34.4941 58.4758 34.2245 58.6916 34.0033 58.9558C33.1458 60.0022 31.8513 60.6602 30.395 60.6602C27.8169 60.6602 25.735 58.5729 25.735 56.0056C25.735 53.4382 27.8223 51.3509 30.395 51.3509C31.8459 51.3509 33.1458 52.0143 34.0033 53.0553C34.4402 53.5893 35.0713 53.9183 35.767 53.9183C36.3819 53.9183 36.9374 53.6702 37.3419 53.2656C37.7465 52.8611 37.9946 52.3002 37.9946 51.6853V40.0137H6V51.6853C6 52.9205 7.0032 53.9183 8.23293 53.9183C8.57812 53.9183 8.90712 53.8374 9.20916 53.6863C9.50581 53.5353 9.77549 53.3196 9.99663 53.0553C10.8488 52.0143 12.1486 51.3509 13.5995 51.3509C16.1776 51.3509 18.2595 53.4382 18.2595 56.0056L18.2649 55.9948Z" fill="#BACFF8"/>
<g opacity="0.6">
<path d="M18.2649 55.9948C18.2649 58.5675 16.1776 60.6494 13.6049 60.6494C12.154 60.6494 10.8542 59.986 10.002 58.9451C9.56514 58.4165 8.9287 58.0821 8.23832 58.0821C7.62346 58.0821 7.06253 58.3302 6.65801 58.7401C6.2481 59.1392 6 59.7002 6 60.3204V71.9975H37.9946V60.3204C37.9946 59.0853 36.9968 58.0875 35.767 58.0875C35.4218 58.0875 35.0928 58.1738 34.7908 58.3248C34.4941 58.4758 34.2245 58.6916 34.0033 58.9558C33.1458 60.0022 31.8513 60.6602 30.395 60.6602C27.8169 60.6602 25.735 58.5729 25.735 56.0056C25.735 53.4382 27.8223 51.3509 30.395 51.3509C31.8459 51.3509 33.1458 52.0143 34.0033 53.0553C34.4402 53.5893 35.0713 53.9183 35.767 53.9183C36.3819 53.9183 36.9374 53.6702 37.3419 53.2656C37.7465 52.8611 37.9946 52.3002 37.9946 51.6853V40.0137H6V51.6853C6 52.9205 7.0032 53.9183 8.23293 53.9183C8.57812 53.9183 8.90712 53.8374 9.20916 53.6863C9.50581 53.5353 9.77549 53.3196 9.99663 53.0553C10.8488 52.0143 12.1486 51.3509 13.5995 51.3509C16.1776 51.3509 18.2595 53.4382 18.2595 56.0056L18.2649 55.9948Z" fill="#BACFF8"/>
</g>
<path d="M52.8164 32.7739C52.4874 30.2227 50.1465 28.4267 47.5954 28.7557C46.1553 28.9444 44.9526 29.7696 44.2406 30.9131C43.8738 31.4956 43.2859 31.9109 42.6064 31.9972C41.9969 32.0781 41.409 31.9001 40.9559 31.5495C40.5029 31.2043 40.1847 30.6812 40.1038 30.0663L38.599 18.4863L27.019 19.9911C25.7947 20.1475 24.9371 21.264 25.0935 22.4883C25.1366 22.8281 25.2607 23.1518 25.4495 23.4268C25.6382 23.7019 25.881 23.9446 26.1776 24.1226C27.321 24.8345 28.1516 26.0373 28.335 27.472C28.6694 30.0285 26.868 32.3639 24.3168 32.6983C21.7657 33.0274 19.4303 31.2313 19.0959 28.6748C18.9071 27.2401 19.3979 25.8647 20.3202 24.8831C20.7894 24.3815 21.0429 23.7073 20.9512 23.0223C20.8703 22.4128 20.5521 21.8897 20.0991 21.5391C19.646 21.1939 19.0635 21.0159 18.4486 21.0968L6.86328 22.6016L10.9893 54.3265L22.5693 52.8217C23.7936 52.6653 24.6566 51.5434 24.4948 50.3245C24.4517 49.9847 24.3222 49.6611 24.1388 49.386C23.9501 49.1109 23.702 48.8736 23.4107 48.6902C22.2673 47.9783 21.4421 46.7755 21.2533 45.3354C20.9189 42.7789 22.7203 40.4435 25.2715 40.1091C27.8226 39.7801 30.158 41.5761 30.4924 44.1327C30.6812 45.5674 30.185 46.9427 29.2627 47.9243C28.7935 48.4259 28.5454 49.1001 28.6371 49.7851C28.718 50.3946 29.0362 50.9178 29.4892 51.2683C29.9423 51.6135 30.5248 51.7915 31.1397 51.7106L42.725 50.2058L41.2202 38.6259C41.0638 37.4015 41.9214 36.2797 43.1457 36.1233C43.4855 36.0801 43.8253 36.1233 44.1435 36.2311C44.4617 36.339 44.753 36.5224 45.0065 36.7543C45.9827 37.6766 47.3581 38.1674 48.7982 37.9786C51.3493 37.6442 53.1508 35.3088 52.8164 32.7631V32.7739Z" fill="#5073EE"/>
</svg>
